<?xml version="1.0" encoding="UTF-8"?>
<svg width="48px" height="48px" viewBox="0 0 48 48" version="1.1" xmlns="http://www.w3.org/2000/svg"
     xmlns:xlink="http://www.w3.org/1999/xlink">
  <g id="page-1" stroke="none" stroke-width="1" fill="none" fill-rule="evenodd">
    <g id="pop" transform="translate(-1414.000000, -192.000000)">
      <g id="group-3" transform="translate(1414.000000, 192.000000)">
        <g id="shezhi" transform="translate(8.000000, 8.000000)" fill="#000000" fill-rule="nonzero">
          <path
            d="M32.5249197,14.4013383 L29.9920933,13.8286783 C29.6471282,12.1743565 28.9944597,10.5996509 28.0680805,9.18657669 L29.5294823,6.87160802 C29.7119921,6.68561321 29.7119921,6.38762809 29.5294823,6.20163329 L27.0147365,3.68548501 C26.8288453,3.50287344 26.5310262,3.50287344 26.3451351,3.68548501 L24.0071415,5.15986617 C22.6425564,4.28114483 21.130776,3.65585109 19.5443793,3.31400461 L18.905016,0.475033332 C18.905016,0.213032028 18.691791,0 18.4299358,0 L14.8743151,0 C14.6124599,0 14.3995466,0.213032028 14.3995466,0.475033332 L13.7601832,3.31400461 C12.2238809,3.64735177 10.7571055,4.24511164 9.42523145,5.08064195 L6.86808992,3.46621489 C6.68216097,3.28339909 6.38410578,3.28339909 6.19817683,3.46621489 L3.68374266,5.98236311 C3.50123287,6.16835792 3.50123287,6.46634308 3.68374266,6.65233789 L5.26048554,9.15008366 C4.39526903,10.4582804 3.76484245,11.907508 3.39757227,13.4325573 L0.475080288,14.0969178 C0.213225007,14.0969178 0,14.3099498 0,14.5719511 L0,18.1295545 C0,18.3915558 0.213225007,18.6045879 0.475080288,18.6045879 L3.26352727,19.2383815 C3.56708858,20.8244333 4.15277218,22.3430734 4.99270735,23.7220347 L3.47051765,26.1343182 C3.2880079,26.320313 3.2880079,26.6182981 3.47051765,26.8042929 L5.98526353,29.3204412 C6.17115468,29.5030528 6.46897377,29.5030528 6.65486491,29.3204412 L8.93207068,27.8825531 C10.3169342,28.8373074 11.8676064,29.5252809 13.5045626,29.9111917 L14.094984,32.5249667 C14.094984,32.7866561 14.308209,33 14.5700642,33 L18.1256849,33 C18.3875401,33 18.6004534,32.7866561 18.6004534,32.5246547 L19.1606367,30.0390733 C20.8635201,29.7241932 22.4901646,29.0851799 23.9522766,28.1567187 L26.1259872,29.527547 C26.3118783,29.7101585 26.6096974,29.7101585 26.7955885,29.527547 L29.3103344,27.0113987 C29.4928442,26.8254039 29.4928442,26.5274188 29.3103344,26.341424 L27.9829775,24.2397992 C28.9502043,22.7967863 29.6321998,21.181742 29.9920933,19.4819803 L32.5249197,18.9093203 C32.786775,18.9093203 33,18.6959764 33,18.4339751 L33,14.8763717 C33,14.6143704 32.786775,14.4013383 32.5249197,14.4013383 Z M16.5183922,24.014291 C12.3720385,24.014291 9.01717364,20.651629 9.01717364,16.5092013 C9.01717364,12.3664616 12.3779615,9.0037996 16.5183922,9.0037996 C20.6644341,9.0037996 24.0192991,12.3664616 24.0192991,16.5092013 C24.0192991,20.6513171 20.6585113,24.014291 16.5183922,24.014291 L16.5183922,24.014291 Z"
            id="shape"></path>
        </g>
        <rect id="shape" x="0" y="0" width="48" height="48"></rect>
      </g>
    </g>
  </g>
</svg>
