<?xml version="1.0" encoding="UTF-8"?>
<svg width="120px" height="107px" viewBox="0 0 120 107" version="1.1" xmlns="http://www.w3.org/2000/svg" xmlns:xlink="http://www.w3.org/1999/xlink">
    <title>编组 80</title>
    <g id="页面-1" stroke="none" stroke-width="1" fill="none" fill-rule="evenodd">
        <g id="画板备份-12" transform="translate(-1288.000000, -2370.000000)">
            <g id="编组-82" transform="translate(1174.000000, 2290.000000)">
                <g id="编组-80" transform="translate(114.000000, 80.000000)">
                    <rect id="矩形备份-4" stroke="#2A3444" stroke-width="2" fill="#1346FF" x="1" y="48" width="118" height="58" rx="8"></rect>
                    <g id="编组-53" transform="translate(30.000000, 66.000000)" fill="#1346FF">
                        <path d="M9.38,0 L25.459,8.142 L45.56,8.14285714 L41.54,10.8571429 L21.44,10.8571429 L0,0 L9.38,0 Z" id="形状结合"></path>
                        <polygon id="矩形备份-26" opacity="0.3" points="36.18 8.14285714 45.56 8.14285714 67 19 57.62 19"></polygon>
                    </g>
                    <rect id="矩形备份-4" stroke="#2A3444" stroke-width="2" fill="#B8C7FF" x="16" y="1" width="88" height="88" rx="9"></rect>
                    <g id="编组-53" transform="translate(20.000000, 26.000000)" stroke="#2A3444">
                        <path d="M16.4625159,0.5 L33.5937933,17.6419917 L54.4776205,17.642829 L50.5443536,29.0238095 L29.7134794,29.0238095 L1.20660019,0.5 L16.4625159,0.5 Z" id="形状结合" fill="#E1F0FF"></path>
                        <path d="M54.9720872,17.6428571 L76.7942587,39.5 L61.537627,39.5 L39.7154556,17.6428571 L54.9720872,17.6428571 Z" id="矩形备份-26" fill="#FFFFFF"></path>
                    </g>
                </g>
            </g>
        </g>
    </g>
</svg>