<svg xmlns="http://www.w3.org/2000/svg" viewBox="0 0 1387.01 359.7"><defs><style>.cls-1{fill:#33629a;}</style></defs><title>Fichier 1</title><g id="Calque_2" data-name="Calque 2"><g id="svg2985"><path class="cls-1" d="M862.45,104.49c-19.58-4.07-44.79-.88-64,8.1-4.77,2.24-9.35,4.07-10.16,4.07-1.29,0-1.42-7.41-1.1-58.33L787.62,0l-4,.8c-2.21.45-24.71,4.64-50,9.32s-47,8.75-48.2,9c-1.83.43-2.15,1.13-2,4.26.22,3.49.51,3.81,4.2,4.62,12.67,2.79,14.93,3.78,19.64,8.65,5.78,6,8.39,13.58,10.1,29.48,1.36,12.66,1.66,230.88.36,263.1L717,348.35l10.31,2.21c39.05,8.35,78,11.24,102.32,7.58h0c30.37-4.55,52.66-15,71.53-33.48,27.27-26.75,40.41-64.49,38.63-111-.91-23.95-4.82-39.6-14.75-59C911.57,128.36,888.57,109.92,862.45,104.49Zm2.32,155.62c-4.6,29.14-13,51.63-24.61,66.16-5.64,7-15,13.7-22.35,15.88-4.73,1.4-14.86,1.73-23.89.78h0c-2-.21-4.18-1-4.8-1.75-1.72-2.06-3.57-137.81-2.43-177.52l.91-31.5,8-2.31c11.8-3.4,24.51-2.87,33.51,1.39,18.09,8.58,30,29.76,36.15,64.42C867.27,207,867,246.16,864.77,260.11Z"/><path class="cls-1" d="M452.46,128.65c-20.79-19.6-47-29-80.86-29-35.91,0-64.82,11.13-87.07,33.52-23.83,24-36.43,57.43-36.43,96.7,0,40.73,11.38,73.61,33.47,96.65,12.17,12.7,24,20.32,41,26.36,6,2.14,10.43,3.17,26.5,6.16,1.37.25,10.6.3,20.5.1,13.4-.27,20.17-.86,26.5-2.34h0c17.74-4.14,31.88-10.47,44.53-19.91,30.75-23,47.6-58.19,49.16-102.74C491.32,190.23,478.08,152.79,452.46,128.65Zm-36.4,132.82c-3.31,46.67-13.43,72-32.32,80.77-6.85,3.19-19,3.36-25.59.36h0c-16.42-7.45-28.07-30.1-33.91-65.94-3.7-22.72-4.05-73.25-.68-98,4.74-34.77,14.74-55.31,30.32-62.25,10.67-4.75,25.47-1.94,35,6.66C410,142.15,420.66,196.43,416.06,261.47Z"/><path class="cls-1" d="M691.92,102.82a53.64,53.64,0,0,0-24.78-3.92c-24.84,1.44-46.88,17.94-62.75,47-2.64,4.82-5.37,8.77-6.07,8.78-1,0-1.14-5.53-.59-27.55l.69-27.56-2.41.57c-1.33.31-21.31,4.36-44.41,9-49.55,10-56.43,11.39-57.62,12.12-.48.31-.88,2.09-.88,4,0,3.77-.45,3.55,10.81,5.36,15.48,2.49,20.94,10,23.25,32.1,3,28.76,1.81,140.87-1.67,156.18-1.78,7.83-6.38,15.36-11,18-1.72,1-7.12,2.59-12,3.54l-8.88,1.74-.31,5.25-.3,5.25H640.1V341.83l-7.75-.66c-17.88-1.51-22.78-3.3-27.47-10.06-6.8-9.8-8.28-27.88-8.28-101.12V172.82l2.47-2.64c3.13-3.33,12.91-8,19.82-9.42,14-2.93,32-.4,46,6.49,4,2,7.49,3.42,7.7,3.21.41-.41,23.47-61.34,24.19-63.91C697.13,105.39,695.8,104.37,691.92,102.82Z"/><path class="cls-1" d="M201.6,30.16l8.54,3.06c19.79,7.08,34,21.56,45.93,46.68,2.67,5.64,6.1,13.86,7.61,18.26s2.86,8.14,3,8.31,3.41-.66,7.3-1.84l7.07-2.15-.49-32.66c-.28-18-.76-39.53-1.08-47.91l-.58-15.25H0L.3,12.9l.3,6.25,9,1.12c12,1.5,16.4,2.81,21.24,6.31C38.17,31.89,42.67,39.69,45.51,52c4.41,19.08,6,62.12,5.26,142.68-.77,85.12-1.85,102.82-7.27,120C39,328.78,30.73,336.27,17,338.53c-3.78.63-9.13,1.62-11.89,2.21l-5,1.08v10.84h179v-5.5c0-3-.27-5.5-.61-5.5-4.76,0-27-4.79-30.53-6.59-12.7-6.39-18.57-21.59-20.85-54-1.62-23-3.23-90.63-2.18-91.68s43.22.74,48.17,1.92c13.66,3.27,24.19,16.71,29.46,37.61l2.32,9.21,6.11.29,6.11.3V122.66h-6.5c-6.08,0-6.5.14-6.5,2.25,0,3.79-3.8,15.78-7.39,23.34-5.62,11.84-13.54,19-23.61,21.31-2.48.57-14.16,1.49-26,2-16.65.77-21.64.72-22.27-.22-1.16-1.74,1.49-133.4,2.8-139.52l.5-2.31,36.72.31Z"/><path class="cls-1" d="M1323.1,203.18c-26.21-11.08-41.91-20.47-48.35-28.91-5.31-7-7-12.32-7-21.61.11-14,5.42-24.75,15.56-31.45,8.49-5.6,19.14-7,31.52-4,15,3.53,26.24,12.72,36.4,29.71,3.24,5.41,9.89,20.58,13.13,29.95.5,1.45,1.08,1.51,4.57.48a19.28,19.28,0,0,0,4.69-1.86c.38-.38.35-14.71-.06-31.84l-.74-31.15-3.63-1.53c-6.12-2.6-22.1-6.94-32.62-8.88-7.92-1.46-14.89-1.83-33.5-1.81-22.22,0-24,.17-33.21,2.66-26.65,7.23-46.41,22.27-56.74,43.18-5.49,11.12-7.38,19.69-7.32,33.09.09,19,5.27,33.06,16.73,45.33,9.87,10.56,22.69,18.09,44.54,26.16,17.18,6.34,34.93,15.2,41.65,20.8a38.46,38.46,0,0,1,9.38,11.31c3.29,6.08,3.46,6.89,3.46,16.4,0,9.16-.26,10.56-3.17,16.7-7.6,16-22.8,24-42.71,22.37-27-2.21-46.1-20.1-61.61-57.87-4-9.85-4.32-10.06-10.47-7.72l-2.82,1.08.71,35.22c.62,31.25.89,35.36,2.38,36.5,4.45,3.41,33.23,10.24,53.2,12.63,15.5,1.85,39.28,1.91,51,.13,42.48-6.45,69.91-29.23,77.11-64,3.47-16.81,1.85-35.5-4.16-48C1372.62,228.66,1358.38,218.09,1323.1,203.18Z"/><path class="cls-1" d="M1121.39,105.7c-11.66-4.25-22.69-6-37.23-6q-51.66,0-84.33,33.87c-17.35,18-27.64,38.21-33.92,66.63-1.9,8.56-2.22,13-2.22,31s.33,22.45,2.16,30.71c11.67,52.45,46.17,87,95.75,95.84,12.56,2.24,31.07,2.41,43.47.4,23.17-3.76,46-14.88,62.38-30.41,9-8.5,12-12.61,10.72-14.76-3.34-5.74-3.19-5.73-11.7-.5-13.56,8.32-20.35,10.62-36.27,12.25-18.6,1.91-35.75-1.2-51.6-9.35-10.52-5.4-23.12-17.84-29.42-29-8.6-15.26-13.26-33.09-14.65-56-.58-9.62-.46-12,.67-12.73.77-.49,34.12-.89,74.65-.9h73.25v-2.9c0-6.58-2.16-24.25-4.1-33.52C1171.22,143,1150.68,116.39,1121.39,105.7ZM1101,199c-20.88,1.17-65.71,1.75-66.26.87h0c-.75-1.21,1.12-19,3-28.23q6.67-33.34,21.39-48.16c5.28-5.31,7.68-7,12-8.25a39.86,39.86,0,0,1,7.46-1.59c4.59,0,10,2.36,14,6.07,10.82,10,17,31.38,18.23,63.07l.61,15.64Z"/></g></g></svg>