<?xml version="1.0" encoding="UTF-8"?>
<svg width="80px" height="80px" viewBox="0 0 80 80" version="1.1" xmlns="http://www.w3.org/2000/svg" xmlns:xlink="http://www.w3.org/1999/xlink">
    <title>编组 52</title>
    <g id="页面-1" stroke="none" stroke-width="1" fill="none" fill-rule="evenodd">
        <g id="画板备份-12" transform="translate(-1042.000000, -3929.000000)">
            <g id="编组-52" transform="translate(1042.000000, 3929.000000)">
                <rect id="矩形备份-3" x="0" y="0" width="80" height="80"></rect>
                <g id="编组-51" transform="translate(14.500000, 14.000000)" fill="#1346FF" stroke="#000000">
                    <path d="M34,0.5 L34,14 L30.1538013,14 L30.1529551,4.575 L20.8459968,4.575 L20.8461506,28.5 L17,28.5 L17,0.5 L34,0.5 Z" id="形状结合"></path>
                    <path d="M46,12.5 L46,26 L42.1538013,26 L42.1529551,16.575 L32.8459968,16.575 L32.8461506,40.5 L29,40.5 L29,12.5 L46,12.5 Z" id="形状结合备份-2" fill-opacity="0.3" transform="translate(37.500000, 26.500000) rotate(90.000000) translate(-37.500000, -26.500000) "></path>
                    <path d="M34,23.5 L34,37 L30.1538013,37 L30.1529551,27.575 L20.8459968,27.575 L20.8461506,51.5 L17,51.5 L17,23.5 L34,23.5 Z" id="形状结合备份-3" fill-opacity="0.5" transform="translate(25.500000, 37.500000) rotate(180.000000) translate(-25.500000, -37.500000) "></path>
                    <path d="M23,12.5 L23,26 L19.1538013,26 L19.1529551,16.575 L9.84599678,16.575 L9.84615063,40.5 L6,40.5 L6,12.5 L23,12.5 Z" id="形状结合备份-4" fill-opacity="0.8" transform="translate(14.500000, 26.500000) rotate(270.000000) translate(-14.500000, -26.500000) "></path>
                </g>
            </g>
        </g>
    </g>
</svg>