<?xml version="1.0" encoding="UTF-8"?>
<svg width="80px" height="80px" viewBox="0 0 80 80" version="1.1" xmlns="http://www.w3.org/2000/svg" xmlns:xlink="http://www.w3.org/1999/xlink">
    <title>编组 56</title>
    <g id="页面-1" stroke="none" stroke-width="1" fill="none" fill-rule="evenodd">
        <g id="画板备份-12" transform="translate(-680.000000, -4322.000000)">
            <g id="编组-56" transform="translate(680.000000, 4322.000000)">
                <rect id="矩形备份-7" x="0" y="0" width="80" height="80"></rect>
                <g id="gangganguanli" transform="translate(14.000000, 17.000000)" stroke="#000000">
                    <path d="M49.5211825,42.283737 L1.82396344,21.7314014 C1.39592505,21.5430638 0.900179642,21.599602 0.52511309,21.8795312 C0.150046538,22.1594605 -0.0467604212,22.6198056 0.00947989678,23.085633 C0.0657202147,23.5514604 0.366373719,23.9512556 0.797190488,24.1330944 L23.9791207,34.1290163 L17.1040804,47 L32.2569353,47 L25.7810349,34.8986036 L48.4944096,44.6999506 C48.9224479,44.8882882 49.4181934,44.8317499 49.7932599,44.5518207 C50.1683265,44.2718915 50.3651334,43.8115464 50.3088931,43.345719 C50.2526528,42.8798916 49.9519993,42.4800963 49.5211825,42.2982575 L49.5211825,42.283737 Z" id="形状" fill-opacity="0.3" fill="#1346FF" fill-rule="nonzero"></path>
                    <path d="M12.9478192,23.6393969 C19.4491689,23.6393969 24.7195541,18.3475377 24.7195541,11.8196985 C24.7195541,5.29185926 19.4491689,0 12.9478192,0 C6.44646944,0 1.17608417,5.29185926 1.17608417,11.8196985 C1.18405235,18.3442208 6.44977283,23.6313963 12.9478192,23.6393969 Z" id="路径" fill="#1346FF"></path>
                    <path d="M42.3798891,25.2409413 C39.5083284,26.4758674 37.8210643,29.4936012 38.2663432,32.5981692 C38.711622,35.7027372 41.1783835,38.1198066 44.280302,38.4909787 C44.552945,38.5231663 44.8272001,38.5396499 45.1017203,38.5403485 C48.5896826,38.5338165 51.5259001,35.9181933 51.9478375,32.4417326 C52.1737211,30.6140849 51.6600674,28.7718339 50.5219246,27.3276075 C48.5910901,24.8619086 45.2514497,24.0060152 42.3798891,25.2409413 Z" id="路径" fill-opacity="0.3" fill="#FFFFFF"></path>
                </g>
            </g>
        </g>
    </g>
</svg>