<?xml version="1.0" encoding="UTF-8"?>
<svg width="537px" height="304px" viewBox="0 0 537 304" version="1.1" xmlns="http://www.w3.org/2000/svg" xmlns:xlink="http://www.w3.org/1999/xlink">
    <title>编组 88</title>
    <g id="页面-1" stroke="none" stroke-width="1" fill="none" fill-rule="evenodd">
        <g id="画板备份-11" transform="translate(-1037.000000, -4042.000000)">
            <g id="编组-89" transform="translate(0.000000, 3482.000000)">
                <g id="编组-88" transform="translate(1037.000000, 560.000000)">
                    <g id="编组-69" transform="translate(55.000000, 0.000000)">
                        <g id="编组-72">
                            <text id="Broker" font-family="Gilroy-Bold" font-size="20" font-weight="normal" fill="#757575">
                                <tspan x="59.8286111" y="32">Broker</tspan>
                            </text>
                            <g id="编组-74" transform="translate(78.204167, 39.000000)" fill="#A7F5FF">
                                <ellipse id="椭圆形" cx="2.00277778" cy="2" rx="2.00277778" ry="2"></ellipse>
                                <ellipse id="椭圆形备份-3" cx="11.0152778" cy="2" rx="2.00277778" ry="2"></ellipse>
                                <ellipse id="椭圆形备份-4" cx="20.0277778" cy="2" rx="2.00277778" ry="2"></ellipse>
                            </g>
                            <rect id="矩形" stroke="#757575" x="0.5" y="0.5" width="179" height="59"></rect>
                            <rect id="矩形" stroke="#757575" x="3.50416667" y="3.5" width="172.240278" height="53"></rect>
                        </g>
                        <g id="编组-71" transform="translate(0.000000, 120.000000)">
                            <text id="Trader" font-family="Gilroy-Bold" font-size="20" font-weight="normal" fill="#FFFFFF">
                                <tspan x="59.15" y="32">Trader</tspan>
                            </text>
                            <rect id="矩形备份-38" stroke="#FFFFFF" x="0.5" y="0.5" width="179" height="59"></rect>
                            <g id="编组-76" transform="translate(79.205556, 39.000000)" fill="#FFEE2F">
                                <ellipse id="椭圆形" cx="2.00277778" cy="2" rx="2.00277778" ry="2"></ellipse>
                                <ellipse id="椭圆形备份-3" cx="11.0152778" cy="2" rx="2.00277778" ry="2"></ellipse>
                                <ellipse id="椭圆形备份-4" cx="20.0277778" cy="2" rx="2.00277778" ry="2"></ellipse>
                            </g>
                            <rect id="矩形" stroke="#FFFFFF" x="4.50555556" y="3.5" width="172.240278" height="53"></rect>
                        </g>
                        <g id="编组-70" transform="translate(0.000000, 240.000000)">
                            <text id="Liquidator" font-family="Gilroy-Bold" font-size="20" font-weight="normal" fill="#757575">
                                <tspan x="41.8577778" y="34">Liquidator</tspan>
                            </text>
                            <g id="编组-9" transform="translate(78.205556, 41.000000)" fill="#979DFF">
                                <ellipse id="椭圆形" cx="2.00277778" cy="2" rx="2.00277778" ry="2"></ellipse>
                                <ellipse id="椭圆形备份-3" cx="11.0152778" cy="2" rx="2.00277778" ry="2"></ellipse>
                                <ellipse id="椭圆形备份-4" cx="20.0277778" cy="2" rx="2.00277778" ry="2"></ellipse>
                            </g>
                            <rect id="矩形" stroke="#757575" x="4.50555556" y="3.5" width="172.240278" height="53"></rect>
                            <rect id="矩形备份-39" stroke="#757575" x="0.5" y="0.5" width="179" height="59"></rect>
                        </g>
                        <g id="编组-23" transform="translate(290.000000, 240.000000)">
                            <text id="public-pool" font-family="Gilroy-Bold" font-size="20" font-weight="normal" fill="#FFFFFF">
                                <tspan x="38.8" y="24">public pool</tspan>
                            </text>
                            <text id="(back-up-liquidity)" font-family="Gilroy-Medium" font-size="14" font-weight="normal" fill="#FFFFFF">
                                <tspan x="33.261" y="40">(back up liquidity)</tspan>
                            </text>
                            <g id="编组-87" transform="translate(79.000000, 47.000000)" fill="#FFFFFF">
                                <ellipse id="椭圆形" cx="2.00277778" cy="2" rx="2.00277778" ry="2"></ellipse>
                                <ellipse id="椭圆形备份-3" cx="11.0152778" cy="2" rx="2.00277778" ry="2"></ellipse>
                                <ellipse id="椭圆形备份-4" cx="20.0277778" cy="2" rx="2.00277778" ry="2"></ellipse>
                            </g>
                            <rect id="矩形" stroke="#FFFFFF" x="3.5" y="3.5" width="172.240278" height="53"></rect>
                            <rect id="矩形备份-40" stroke="#FFFFFF" x="0.5" y="0.5" width="179" height="59"></rect>
                        </g>
                        <g id="编组-73" transform="translate(290.000000, 0.000000)">
                            <text id="Private-pool" font-family="Gilroy-Bold" font-size="20" font-weight="normal" fill="#FFFFFF">
                                <tspan x="33.3197222" y="24">Private pool</tspan>
                            </text>
                            <text id="(option-seller)" font-family="Gilroy-Medium" font-size="14" font-weight="normal" fill="#FFFFFF">
                                <tspan x="46.7027222" y="40">(option seller)</tspan>
                            </text>
                            <g id="编组-86" transform="translate(78.204167, 47.000000)" fill="#E88CFF">
                                <ellipse id="椭圆形" cx="2.00277778" cy="2" rx="2.00277778" ry="2"></ellipse>
                                <ellipse id="椭圆形备份-3" cx="11.0152778" cy="2" rx="2.00277778" ry="2"></ellipse>
                                <ellipse id="椭圆形备份-4" cx="20.0277778" cy="2" rx="2.00277778" ry="2"></ellipse>
                            </g>
                            <rect id="矩形" stroke="#FFFFFF" x="3.50416667" y="3.5" width="172.240278" height="53"></rect>
                            <rect id="矩形备份-41" stroke="#FFFFFF" x="0.5" y="0.5" width="179" height="59"></rect>
                        </g>
                        <g id="编组-2" transform="translate(264.469695, 124.963538)" fill-rule="nonzero">
                            <path d="M18.7184777,38.2549427 L18.7182286,49.2814892 L34.0775454,49.2815223 L34.0775454,58.0416306 L9.95836944,58.0416306 L9.95836944,38.2549427 L18.7184777,38.2549427 Z M58.0416306,9.95836944 L58.0416306,29.4506985 L49.2815223,29.4506985 L49.2812147,18.7179463 L34.0586342,18.7184777 L34.0586342,9.95836944 L58.0416306,9.95836944 Z" id="形状" fill="#FFFFFF" transform="translate(34.000000, 34.000000) rotate(45.000000) translate(-34.000000, -34.000000) "></path>
                            <polygon id="路径-168" fill="#1A4BFF" points="13.5303046 20.0659495 33.9678159 0.0364619087 51.3078054 17.0522169 44.9961043 23.2470723 33.9635106 12.4206179 26.1644289 20.064571 54.5303046 47.8540682 33.9661475 68.0364619 16.6915787 51.086536 23.002976 44.8913825 33.9652126 55.6474534 41.9004533 47.8592959"></polygon>
                        </g>
                        <path id="直线-3" d="M379.760994,66.2485203 L379.762478,66.4985159 L380.708,225.887 L383.708617,225.869713 L380.500228,232.888882 L377.208732,225.908298 L380.208,225.89 L379.262487,66.5014841 L379.261003,66.2514885 L379.760994,66.2485203 Z" fill="#FFFFFF" fill-rule="nonzero"></path>
                        <path id="直线-3备份" d="M89.9993065,231.5 L89.9993065,235.5 L88.9993065,235.5 L88.9993065,231.5 L89.9993065,231.5 Z M89.9993065,222.5 L89.9993065,226.5 L88.9993065,226.5 L88.9993065,222.5 L89.9993065,222.5 Z M89.9993065,213.5 L89.9993065,217.5 L88.9993065,217.5 L88.9993065,213.5 L89.9993065,213.5 Z M89.9993065,204.5 L89.9993065,208.5 L88.9993065,208.5 L88.9993065,204.5 L89.9993065,204.5 Z M89.9993065,195.5 L89.9993065,199.5 L88.9993065,199.5 L88.9993065,195.5 L89.9993065,195.5 Z M89.4993065,184.5 L93.9993065,193.5 L84.9993065,193.5 L89.4993065,184.5 Z" fill="#A9A9A9" fill-rule="nonzero"></path>
                        <path id="直线-3备份-7" d="M187.75423,249.187231 L188.631762,249.666748 L188.392004,250.105514 L186.953453,252.738112 L186.713695,253.176879 L185.836162,252.697362 L186.075921,252.258596 L187.514471,249.625997 L187.75423,249.187231 Z M192.069881,241.289437 L192.947413,241.768954 L192.707655,242.20772 L191.269105,244.840318 L191.029346,245.279084 L190.151814,244.799568 L190.391572,244.360801 L191.830122,241.728203 L192.069881,241.289437 Z M196.385532,233.391643 L197.263065,233.871159 L197.023306,234.309926 L195.584756,236.942524 L195.344997,237.38129 L194.467465,236.901773 L194.707223,236.463007 L196.145774,233.830409 L196.385532,233.391643 Z M200.701183,225.493848 L201.578716,225.973365 L201.338958,226.412131 L199.900407,229.04473 L199.660649,229.483496 L198.783116,229.003979 L199.022874,228.565213 L200.461425,225.932615 L200.701183,225.493848 Z M205.016834,217.596054 L205.894367,218.075571 L205.654609,218.514337 L204.216058,221.146935 L203.9763,221.585702 L203.098767,221.106185 L203.338526,220.667418 L204.777076,218.03482 L205.016834,217.596054 Z M209.332486,209.69826 L210.210018,210.177777 L209.97026,210.616543 L208.53171,213.249141 L208.291951,213.687907 L207.414419,213.208391 L207.654177,212.769624 L209.092727,210.137026 L209.332486,209.69826 Z M213.648137,201.800465 L214.52567,202.279982 L214.285911,202.718749 L212.847361,205.351347 L212.607602,205.790113 L211.73007,205.310596 L211.969828,204.87183 L213.408379,202.239232 L213.648137,201.800465 Z M217.963788,193.902671 L218.841321,194.382188 L218.601563,194.820954 L217.163012,197.453552 L216.923254,197.892319 L216.045721,197.412802 L216.285479,196.974036 L217.72403,194.341438 L217.963788,193.902671 Z M222.279439,186.004877 L223.156972,186.484394 L222.917214,186.92316 L221.478663,189.555758 L221.238905,189.994524 L220.361372,189.515008 L220.601131,189.076241 L222.039681,186.443643 L222.279439,186.004877 Z M226.595091,178.107083 L227.472623,178.586599 L227.232865,179.025366 L225.794315,181.657964 L225.554556,182.09673 L224.677023,181.617213 L224.916782,181.178447 L226.355332,178.545849 L226.595091,178.107083 Z M230.910742,170.209288 L231.788275,170.688805 L231.548516,171.127572 L230.109966,173.76017 L229.870207,174.198936 L228.992675,173.719419 L229.232433,173.280653 L230.670984,170.648055 L230.910742,170.209288 Z M235.226393,162.311494 L236.103926,162.791011 L235.864167,163.229777 L234.425617,165.862375 L234.185859,166.301142 L233.308326,165.821625 L233.548084,165.382859 L234.986635,162.75026 L235.226393,162.311494 Z M239.542044,154.4137 L240.419577,154.893217 L240.179819,155.331983 L238.741268,157.964581 L238.50151,158.403347 L237.623977,157.923831 L237.863736,157.485064 L239.302286,154.852466 L239.542044,154.4137 Z M243.857696,146.515906 L244.735228,146.995422 L244.49547,147.434189 L243.05692,150.066787 L242.817161,150.505553 L241.939628,150.026036 L242.179387,149.58727 L243.617937,146.954672 L243.857696,146.515906 Z M248.173347,138.618111 L249.05088,139.097628 L248.811121,139.536394 L247.372571,142.168993 L247.132812,142.607759 L246.25528,142.128242 L246.495038,141.689476 L247.933589,139.056878 L248.173347,138.618111 Z M252.488998,130.720317 L253.366531,131.199834 L253.126772,131.6386 L251.688222,134.271198 L251.448464,134.709965 L250.570931,134.230448 L250.810689,133.791681 L252.24924,131.159083 L252.488998,130.720317 Z M256.804649,122.822523 L257.682182,123.30204 L257.442424,123.740806 L256.003873,126.373404 L255.764115,126.81217 L254.886582,126.332654 L255.126341,125.893887 L256.564891,123.261289 L256.804649,122.822523 Z M261.120301,114.924728 L261.997833,115.404245 L261.758075,115.843012 L260.319525,118.47561 L260.079766,118.914376 L259.202233,118.434859 L259.441992,117.996093 L260.880542,115.363495 L261.120301,114.924728 Z M265.435952,107.026934 L266.313485,107.506451 L266.073726,107.945217 L264.635176,110.577815 L264.395417,111.016582 L263.517885,110.537065 L263.757643,110.098299 L265.196193,107.465701 L265.435952,107.026934 Z M269.751603,99.1291399 L270.629136,99.6086567 L270.389377,100.047423 L268.950827,102.680021 L268.711069,103.118788 L267.833536,102.639271 L268.073294,102.200504 L269.511845,99.5679063 L269.751603,99.1291399 Z M274.067254,91.2313456 L274.944787,91.7108624 L274.705029,92.1496288 L273.266478,94.7822269 L273.02672,95.2209932 L272.149187,94.7414764 L272.388946,94.3027101 L273.827496,91.670112 L274.067254,91.2313456 Z M278.382906,83.3335514 L279.260438,83.8130682 L279.02068,84.2518345 L277.582129,86.8844326 L277.342371,87.323199 L276.464838,86.8436822 L276.704597,86.4049158 L278.143147,83.7723177 L278.382906,83.3335514 Z M282.698557,75.4357571 L283.57609,75.9152739 L283.336331,76.3540402 L281.897781,78.9866383 L281.658022,79.4254047 L280.78049,78.9458879 L281.020248,78.5071215 L282.458798,75.8745234 L282.698557,75.4357571 Z M289.274669,64.4439558 L288.907915,74.4995757 L281.010121,70.1839245 L289.274669,64.4439558 Z" fill="#A9A9A9" fill-rule="nonzero"></path>
                        <path id="直线-3备份-8" d="M272,265 L281,269.5 L272,274 L271.999,270 L270.432284,270 L270.432284,269 L271.999,269 L272,265 Z M193.432284,269 L193.432284,270 L189.432284,270 L189.432284,269 L193.432284,269 Z M202.432284,269 L202.432284,270 L198.432284,270 L198.432284,269 L202.432284,269 Z M211.432284,269 L211.432284,270 L207.432284,270 L207.432284,269 L211.432284,269 Z M220.432284,269 L220.432284,270 L216.432284,270 L216.432284,269 L220.432284,269 Z M229.432284,269 L229.432284,270 L225.432284,270 L225.432284,269 L229.432284,269 Z M238.432284,269 L238.432284,270 L234.432284,270 L234.432284,269 L238.432284,269 Z M247.432284,269 L247.432284,270 L243.432284,270 L243.432284,269 L247.432284,269 Z M256.432284,269 L256.432284,270 L252.432284,270 L252.432284,269 L256.432284,269 Z M265.432284,269 L265.432284,270 L261.432284,270 L261.432284,269 L265.432284,269 Z" fill="#A9A9A9" fill-rule="nonzero"></path>
                        <path id="直线-3备份-5" d="M90,64 L90,105 L94,105 L89.5,114 L85,105 L89,105 L89,64 L90,64 Z" fill="#A9A9A9" fill-rule="nonzero"></path>
                        <path id="直线-3备份-2" d="M185.897621,166.220075 L193.096217,169.002647 L190.936,171.085 L285.679951,269.326456 L285.853495,269.506408 L285.493592,269.853495 L285.320049,269.673544 L190.576,171.432 L188.417479,173.514787 L185.897621,166.220075 Z" fill="#FFFFFF" fill-rule="nonzero"></path>
                        <path id="直线-3备份-3" d="M289.024697,43.4601812 L289.388316,43.8033732 L289.21672,43.985183 L191.934,147.058 L194.115355,149.117985 L186.94714,151.977913 L189.388299,144.65649 L191.57,146.715 L288.853101,43.6419911 L289.024697,43.4601812 Z" fill="#FFFFFF" fill-rule="nonzero"></path>
                        <path id="直线-3备份-4" d="M278.91106,21.9054665 L279.275704,22.2475698 L279.104652,22.4298919 L189.387,118.059 L191.574996,120.111433 L184.415363,122.99278 L186.834622,115.664091 L189.022,117.717 L278.740008,22.0877886 L278.91106,21.9054665 Z" fill="#FFFFFF" fill-rule="nonzero"></path>
                    </g>
                    <g id="编组-75" transform="translate(0.000000, 12.000000)" fill-rule="nonzero">
                        <g id="jingjiren" fill="#000000">
                            <path d="M23.3846154,14.1065831 L9.0887574,14.1065831 L4.07100592,4.79623824 C3.50295858,3.85579937 3.59763314,2.72727273 4.16568047,1.78683386 C4.82840237,0.752351097 6.0591716,0 7.38461538,0 L24.9940828,0 C26.3195266,0 27.6449704,0.65830721 28.2130178,1.69278997 C28.7810651,2.63322884 28.7810651,3.76175549 28.3076923,4.70219436 L23.3846154,14.1065831 L23.3846154,14.1065831 Z M16.1893491,60 L0,47.5862069 L9.0887574,16.2695925 L23.3846154,16.2695925 L32,47.5862069 L16.1893491,60 Z" id="形状"></path>
                        </g>
                        <g id="jingjiren备份" fill="#FFFFFF">
                            <path d="M9.0887574,14.1065831 L4.07100592,4.79623824 C3.50295858,3.85579937 3.59763314,2.72727273 4.16568047,1.78683386 C4.82840237,0.752351097 6.0591716,0 7.38461538,0 L24.9940828,0 C26.3195266,0 27.6449704,0.65830721 28.2130178,1.69278997 C28.7810651,2.63322884 28.7810651,3.76175549 28.3076923,4.70219436 L23.3846154,14.1065831 L9.0887574,14.1065831 Z M10.1317902,12.7079326 L22.3567656,12.7079326 L27.0341475,3.34158415 C27.0341475,3.23598816 27.1404517,2.82945172 27.0341475,2.72385573 C26.9278434,2.51266374 26.608931,2.00053131 26.0774103,2.00053131 L6.30484138,2.00053131 C5.87962484,2.00053131 5.4544083,2.2117233 5.34810417,2.42291529 C5.24180003,2.52851128 5.24180003,3.23598816 5.34810417,3.34158415 L10.1317902,12.7079326 Z M16.1893491,60 L0,47.5862069 L9.0887574,16.2695925 L23.3846154,16.2695925 L32,47.5862069 L16.1893491,60 Z M2.06390533,46.7398119 L16.2019724,57.6739812 L29.9360947,46.7398119 L22.1601578,17.7492163 L10.5467456,17.7492163 L2.06390533,46.7398119 Z" id="形状"></path>
                            <path d="M7.70934911,24.968652 L8.74982249,23.2721003 L29.2430769,38.1874608 L28.2026036,39.884953 L7.70934911,24.968652 Z M4.56994083,35.539185 L5.61136095,33.8416928 L27.8286391,49.5423197 L26.7881657,51.2398119 L4.56994083,35.539185 Z" id="形状"></path>
                        </g>
                    </g>
                    <g id="jiesuan" transform="translate(2.000000, 272.000000)" fill-rule="nonzero">
                        <path d="M30.4,32 L4.8,32 C2.13333334,32 0,29.8666667 0,27.2 L0,4.8 C0,2.13333334 2.13333334,0 4.8,0 L24,0 C24.8888889,0 25.6,0.711111125 25.6,1.6 L25.6,6.4 L30.4,6.4 C30.7555556,6.4 31.2888889,6.57777778 31.4666667,6.93333334 L31.6444444,6.93333334 L31.6444444,7.11111112 C31.8222222,7.28888891 32,7.64444447 32,8 L32,30.4 C32,30.7555556 31.8222222,31.1111111 31.6444444,31.4666667 L31.6444444,31.6444444 L31.4666667,31.6444444 C31.2888889,31.8222222 30.7555555,32 30.4,32 Z" id="形状" fill="#000000"></path>
                        <path d="M30.4,32 L4.8,32 C2.13333334,32 0,29.8666667 0,27.2 L0,4.8 C0,2.13333334 2.13333334,0 4.8,0 L24,0 C24.8888889,0 25.6,0.711111125 25.6,1.6 L25.6,6.4 L30.4,6.4 C30.7555556,6.4 31.2888889,6.57777778 31.4666667,6.93333334 L31.6444444,6.93333334 L31.6444444,7.11111112 C31.8222222,7.28888891 32,7.64444447 32,8 L32,30.4 C32,30.7555556 31.8222222,31.1111111 31.6444444,31.4666667 L31.6444444,31.6444444 L31.4666667,31.6444444 C31.2888889,31.8222222 30.7555555,32 30.4,32 Z M1.20516796,7.40351755 L1.20516796,27.8086188 C1.20516796,28.5576061 1.7645078,29.6786863 2.32624821,30.05318 C2.88798866,30.4276736 3.44972907,30.8021672 4.19871634,30.8021672 L30.9726098,30.8021672 L30.9726098,7.40351755 L1.20516796,7.40351755 Z M1.26511628,6.23178733 L24.7069767,6.23178733 L24.7069767,1.36304473 L3.4156878,1.36304473 C2.43815529,1.36304473 1.26511628,2.73159025 1.26511628,3.90462926 L1.26511628,6.23178733 Z" id="形状" fill="#FFFFFF"></path>
                        <path d="M20,18.5 C20,19.8333333 21.1666667,21 22.5,21 C23.8333333,21 25,19.8333333 25,18.5 C25,17.1666666 23.8333333,16 22.5,16 C21.1666667,16 20,17.1666667 20,18.5 Z" id="路径" fill="#FFFFFF"></path>
                    </g>
                    <g id="shuichi" transform="translate(495.000000, 131.000000)">
                        <path d="M1,12 C-0.249688245,11.3333333 1.60745461,11.4166667 6.57142857,12.25 C8.34856624,12.5483392 10.8330468,14.2594769 13.5849713,13.5 C15.5941224,12.9455139 18.4492951,11.0112314 23.0354772,12 C25.9591803,12.6303426 31.6140213,12.6303426 40,12 L40,27 L1,27 L1,12 Z" id="矩形" fill="#000000"></path>
                        <polygon id="路径" fill="#FFFFFF" fill-rule="nonzero" points="39.6061744 0 39.6061744 25.5966715 2.39382562 25.5966715 2.39382562 0 0 0 0 28 42 28 42 0"></polygon>
                        <path d="M32.2716102,11.1501021 C34.6402542,10.7957234 37.0033898,11.0732787 38.920339,11.9356826 C39.2838983,12.0967638 39.6364407,12.2157161 40,12.2950176 L40,12.2950176 L40,13.9553929 C38.7220339,13.8488315 37.504661,13.5489727 36.4305085,13.0657291 C35.45,12.6246145 34.4860169,12.4982277 33.384322,12.6617871 C32.5084746,12.790652 31.875,13.0607728 31.8694915,13.0632509 C31.7483051,13.1177707 30.6466102,13.5985361 28.9775424,13.8488315 C26.6088983,14.2032101 24.2457627,13.9256548 22.3288136,13.0632509 C21.3483051,12.6246145 20.3733051,12.4982277 19.2605932,12.6642652 C18.4122881,12.790652 17.784322,13.0459037 17.7237288,13.0706855 C17.4097458,13.2144194 15.6415254,13.9727401 13.0800847,14 L13.0800847,14 L12.9313559,14 C11.2512712,14 9.68135593,13.6877503 8.24915254,13.0731636 C7.1970339,12.6221363 6.17245763,12.4907932 5.02118644,12.6593089 C4.12881356,12.790652 3.48983051,13.0582946 3.48432203,13.0607728 L3.48432203,13.0607728 L3.4379967,13.039568 C3.01727485,13.1808942 2.37389983,13.3651605 1.55714286,13.5 L1.55714286,13.5 L1.557,12.187 L1,11.9356826 C1.11541566,11.883759 2.12517775,11.4452181 3.68667951,11.1873554 L3.925,11.1501021 C4.64687784,11.0433519 5.37078332,10.9942983 6.08426089,11.0014883 L6.13255361,11.0008782 L6.13255361,11.0008782 L6.57142857,11.0030286 L6.57172676,11.0152169 C8.03593212,11.083098 9.44337044,11.3900719 10.6838983,11.9232918 C12.0224576,12.4982277 13.0470339,12.4461861 13.7025424,12.3569719 C14.5398305,12.242976 15.1402542,11.9877242 15.2063559,11.9579862 L15.2063559,11.9579862 L15.2394068,11.9431171 C15.2740315,11.9275401 15.389597,11.8769651 15.5760822,11.8068249 L15.785836,11.7307345 C16.2899141,11.5542183 17.1112389,11.3100032 18.1478814,11.1550584 C20.5330508,10.7957234 22.9016949,11.0732787 24.8186441,11.9356826 C25.7991525,12.3767973 26.7631356,12.503184 27.8648305,12.3396247 C28.740678,12.2082816 29.3741525,11.9381608 29.379661,11.9356826 C29.5008475,11.8811628 30.6025424,11.4003974 32.2716102,11.1501021 Z" id="形状结合" fill="#FFFFFF" fill-rule="nonzero"></path>
                    </g>
                </g>
            </g>
        </g>
    </g>
</svg>