<?xml version="1.0" encoding="UTF-8"?>
<svg width="120px" height="120px" viewBox="0 0 120 120" version="1.1" xmlns="http://www.w3.org/2000/svg" xmlns:xlink="http://www.w3.org/1999/xlink">
    <title>编组 13</title>
    <g id="页面-1" stroke="none" stroke-width="1" fill="none" fill-rule="evenodd">
        <g id="画板备份-13" transform="translate(-980.000000, -6814.000000)">
            <g id="编组-37" transform="translate(0.000000, 6644.000000)">
                <g id="编组-16备份" transform="translate(660.000000, 170.000000)">
                    <g id="编组-13" transform="translate(320.000000, 0.000000)">
                        <path d="M79.3875544,80.2464771 L87.8366814,40.3024834 C88.1814863,38.6117228 87.9803166,37.4012987 87.2331723,36.6712113 C86.4860281,35.9411238 85.499321,35.8066326 84.2730609,36.2677366 L34.6129148,55.4616325 C33.5016534,55.8843398 32.744853,56.3646764 32.3425137,56.9026423 C31.9401743,57.4406082 31.8922959,57.9497298 32.1988785,58.4299958 C32.5054611,58.9102648 33.1185257,59.2849253 34.0380724,59.5539754 L46.7405301,63.5311262 L76.2262733,44.913493 C77.0309521,44.3755271 77.6440469,44.2602675 78.0655678,44.5677152 C78.3337944,44.7598367 78.2571488,45.0480185 77.8356309,45.4322606 L53.982639,67.0471054 L53.0629917,80.1888811 C53.9443161,80.1888811 54.8064993,79.7661738 55.649531,78.9207602 L61.8570241,72.9263368 L74.7318843,82.4367394 C77.1842132,83.820123 78.7360966,83.0900325 79.3875544,80.2464771 L79.3875544,80.2464771 Z" id="路径备份-6" fill="#FFFFFF" fill-rule="nonzero"></path>
                        <circle id="椭圆形" cx="60" cy="60" r="60"></circle>
                    </g>
                </g>
            </g>
        </g>
    </g>
</svg>