<?xml version="1.0" encoding="UTF-8"?>
<svg width="120px" height="120px" viewBox="0 0 120 120" version="1.1" xmlns="http://www.w3.org/2000/svg" xmlns:xlink="http://www.w3.org/1999/xlink">
    <title>编组 14</title>
    <g id="页面-1" stroke="none" stroke-width="1" fill="none" fill-rule="evenodd">
        <g id="画板备份-13" transform="translate(-820.000000, -6814.000000)">
            <g id="编组-37" transform="translate(0.000000, 6644.000000)">
                <g id="编组-16备份" transform="translate(660.000000, 170.000000)">
                    <g id="编组-14" transform="translate(160.000000, 0.000000)">
                        <circle id="椭圆形" cx="60" cy="60" r="60"></circle>
                        <g id="medium" transform="translate(33.000000, 38.000000)" fill="#FFFFFF" fill-rule="nonzero">
                            <path d="M49.6898438,5.1705401 L54,0.928968903 L54,0 L39.0726563,0 L28.434375,27.2497545 L16.3335937,0 L0.68203125,0 L0.68203125,0.928968903 L5.71640625,7.16530278 C6.20859375,7.62618658 6.46171875,8.30310966 6.3984375,8.98003273 L6.3984375,33.4860884 C6.553125,34.3718494 6.27890625,35.2720131 5.67421875,35.9129296 L0,42.9918167 L0,43.906383 L16.0734375,43.906383 L16.0734375,42.9774141 L10.40625,35.9201309 C9.79453125,35.2792144 9.49921875,34.386252 9.62578125,33.4932897 L9.62578125,12.292635 L23.7375,43.9207856 L25.3757812,43.9207856 L37.5117188,12.292635 L37.5117188,37.4900164 C37.5117188,38.1525368 37.5117188,38.2893617 37.0898438,38.7286416 L32.7234375,43.0710311 L32.7234375,44 L53.9015625,44 L53.9015625,43.0710311 L49.6898437,38.8294599 C49.3242187,38.5414075 49.134375,38.0589198 49.2117187,37.5908347 L49.2117187,6.4091653 C49.134375,5.9410802 49.3242187,5.45859247 49.6898437,5.1705401 L49.6898438,5.1705401 Z" id="路径"></path>
                        </g>
                    </g>
                </g>
            </g>
        </g>
    </g>
</svg>