<?xml version="1.0" encoding="UTF-8"?>
<svg width="120px" height="120px" viewBox="0 0 120 120" version="1.1" xmlns="http://www.w3.org/2000/svg" xmlns:xlink="http://www.w3.org/1999/xlink">
    <title>编组 10</title>
    <g id="页面-1" stroke="none" stroke-width="1" fill="none" fill-rule="evenodd">
        <g id="画板备份-13" transform="translate(-660.000000, -6814.000000)">
            <g id="编组-37" transform="translate(0.000000, 6644.000000)">
                <g id="编组-10" transform="translate(660.000000, 170.000000)">
                    <g id="twitter" transform="translate(32.000000, 38.000000)" fill="#FFFFFF" fill-rule="nonzero">
                        <path d="M49.2684887,10.5782017 C49.2684887,29.6045786 36.6366559,43.305288 18.0578778,43.906573 C10.2009646,44.5078581 4.81832797,42.1456668 0,38.5809054 C5.38263666,39.1821905 12.6318328,37.4212843 16.1913183,33.813574 C10.8086817,33.813574 7.77009646,30.8071487 5.9903537,26.7270002 L10.8086817,26.7270002 C5.9903537,24.923145 2.34405145,21.3583837 2.34405145,15.4314311 C3.51607717,16.0327161 4.73151125,16.5910522 7.16237942,16.5910522 C2.95176849,14.228861 0.564308682,6.4980532 3.55948553,1.73072174 C8.94212219,7.65767436 15.5401929,13.0262909 26.4356913,13.584627 C23.3971061,1.73072174 39.0675241,-4.28212874 45.6655949,3.49162796 C48.7041801,2.89034291 50.4839228,1.73072174 52.8279743,0.485202713 C52.2202572,3.49162796 50.4405145,5.25253417 48.0096463,6.41215533 C50.3971061,6.41215533 52.2202572,5.81087029 54,4.65124912 C53.4356913,7.01344038 51.0482315,9.41858058 49.2684887,10.5782017 Z" id="路径"></path>
                    </g>
                    <circle id="椭圆形" cx="60" cy="60" r="60"></circle>
                </g>
            </g>
        </g>
    </g>
</svg>