<?xml version="1.0" encoding="UTF-8"?>
<svg width="120px" height="120px" viewBox="0 0 120 120" version="1.1" xmlns="http://www.w3.org/2000/svg" xmlns:xlink="http://www.w3.org/1999/xlink">
    <title>编组 12</title>
    <g id="页面-1" stroke="none" stroke-width="1" fill="none" fill-rule="evenodd">
        <g id="画板备份-13" transform="translate(-1140.000000, -6814.000000)">
            <g id="编组-37" transform="translate(0.000000, 6644.000000)">
                <g id="编组-16备份" transform="translate(660.000000, 170.000000)">
                    <g id="编组-12" transform="translate(480.000000, 0.000000)">
                        <circle id="椭圆形" cx="60" cy="60" r="60"></circle>
                        <g id="discord" transform="translate(30.000000, 40.000000)" fill="#FFFFFF" fill-rule="nonzero">
                            <path d="M30.0000375,2.05833091 C18.0493551,2.05833091 9.67922726,7.0898065 9.67922736,7.0898065 C14.2827976,3.06462603 22.2809197,0.731850951 22.2809197,0.731851045 L21.5369084,0 C14.0037933,0.137222036 7.16818902,5.26017898 7.16818902,5.26017907 C-0.504428116,20.9949754 0.00707969285,34.6257002 0.00707969285,34.6257002 C6.2381748,42.5845797 15.5383168,41.9899508 15.5383168,41.9899507 L18.700365,38.0562517 C13.1202798,36.8669939 9.58622586,32.018481 9.58622596,32.018481 C9.58622605,32.018481 17.9563537,37.6445855 30.0000375,37.6445855 C42.0437213,37.6445855 50.4138492,32.018481 50.4138492,32.018481 C50.4138492,32.018481 46.8797952,36.9127346 41.29971,38.0562517 L44.4617583,41.9899507 C44.4617583,41.9899507 53.7153995,42.5845797 59.9929954,34.6257002 C59.9929954,34.6257002 60.5045032,21.0407161 52.7853854,5.26017907 C52.7853854,5.26017907 45.9497811,0.13722213 38.4166661,0 L37.6726546,0.731851045 C37.6726546,0.731851045 45.7172775,3.06462612 50.2743471,7.0898065 C50.3673485,7.0898065 41.95072,2.05833091 30.0000375,2.05833091 M20.792897,18.6622003 C23.675941,18.6622003 26.0474771,21.1779381 26.0009764,24.2425642 C26.0009764,27.2614495 23.6759409,29.822928 20.792897,29.822928 C17.9563536,29.822928 15.6313182,27.2614495 15.6313182,24.2425642 C15.6313182,21.1779381 17.8633522,18.6622003 20.792897,18.6622003 M39.393181,18.6622003 C42.276225,18.6622003 44.6012605,21.1779381 44.6012605,24.2425642 C44.6012605,27.2614495 42.2762249,29.822928 39.393181,29.822928 C36.5566376,29.822928 34.2316021,27.2614495 34.2316021,24.2425642 C34.2316021,21.1779381 36.4636361,18.6622003 39.393181,18.6622003 Z" id="形状"></path>
                        </g>
                    </g>
                </g>
            </g>
        </g>
    </g>
</svg>