<?xml version="1.0" encoding="UTF-8"?>
<svg width="123px" height="131px" viewBox="0 0 123 131" version="1.1" xmlns="http://www.w3.org/2000/svg" xmlns:xlink="http://www.w3.org/1999/xlink">
    <title>rongyijicheng</title>
    <g id="页面-1" stroke="none" stroke-width="1" fill="none" fill-rule="evenodd">
        <g id="画板备份-12" transform="translate(-1099.000000, -2804.000000)" fill-rule="nonzero">
            <g id="编组-81备份" transform="translate(986.000000, 2724.000000)">
                <g id="rongyijicheng" transform="translate(113.000000, 80.000000)">
                    <polygon id="路径" fill="#1346FF" opacity="0.3" points="2 2 122 2 122 66 2 66"></polygon>
                    <path d="M112.300685,67 L10.9520548,67 C5.03259622,67.0027837 0.182136534,62.3292795 0,56.4474979 L0,10.8874996 C0,4.87449959 4.90340194,0 10.9520548,0 L112.047945,0 C114.952611,0 117.738309,1.14707251 119.792217,3.18887475 C121.846126,5.23067699 123,7.99995513 123,10.8874996 L123,56.4474979 C122.822331,62.2331193 118.121834,66.8691163 112.300685,67 Z M10.9520548,3.01499987 C6.57841348,3.01499987 3.03287669,6.53963804 3.03287669,10.8874996 L3.03287669,56.4474979 C3.03287669,60.7953594 6.57841348,64.3199976 10.9520548,64.3199976 L112.047945,64.3199976 C116.421586,64.3199976 119.967123,60.7953594 119.967123,56.4474979 L119.967123,10.8874996 C119.967123,6.53963804 116.421586,3.01499987 112.047945,3.01499987 L10.9520548,3.01499987 Z" id="形状" fill="#2A3444"></path>
                    <polygon id="路径" fill="#373737" points="59 65 62 65 62 96 59 96"></polygon>
                    <path d="M80.7510639,122.064464 C80.3568848,126.264888 76.6448899,129.352918 72.4531915,128.967512 L50.2978723,128.967512 C46.1061739,129.352918 42.3941791,126.264888 42,122.064464 L42,102.935536 C42.3941792,98.735112 46.106174,95.6470821 50.2978723,96.032488 L72.7021277,96.032488 C76.893826,95.6470821 80.6058208,98.735112 81,102.935536 L80.7510639,122.064464 Z" id="路径" fill="#1346FF"></path>
                    <path d="M72.2111553,130.972807 L49.7051793,130.972807 C44.7257746,131.3092 40.4007167,127.583229 40,122.611944 L40,103.381959 C40.4007167,98.4106742 44.7257746,94.6847031 49.7051793,95.0210962 L72.2948207,95.0210962 C77.2742254,94.6847031 81.5992833,98.4106742 82,103.381959 L82,122.611944 C81.5997936,127.618224 77.2220363,131.35736 72.2111553,130.972807 L72.2111553,130.972807 Z M49.621514,97.5293551 C46.2580483,97.2373789 43.2806078,99.6921023 42.9282869,103.047525 L42.9282869,122.27751 C43.2806078,125.632932 46.2580483,128.087655 49.621514,127.795679 L72.2111553,127.795679 C75.5746211,128.087655 78.5520615,125.632932 78.9043824,122.27751 L78.9043824,103.047525 C78.5520615,99.6921023 75.5746211,97.2373789 72.2111553,97.5293551 L49.621514,97.5293551 Z" id="形状" fill="#2A3444"></path>
                </g>
            </g>
        </g>
    </g>
</svg>