<?xml version="1.0" encoding="utf-8"?>
<!-- Generator: Adobe Illustrator 24.2.0, SVG Export Plug-In . SVG Version: 6.00 Build 0)  -->
<svg version="1.1" id="图层_1" xmlns="http://www.w3.org/2000/svg" xmlns:xlink="http://www.w3.org/1999/xlink" x="0px" y="0px"
	 viewBox="0 0 200 200" style="enable-background:new 0 0 200 200;" xml:space="preserve">
<style type="text/css">
	.st0{fill:#ffffff;}
</style>
<path class="st0" d="M100.5,82.4c-8.8,0-16.8,2.7-23.3,7.3c0.7,0.5,1.3,0.9,1.9,1.5h0.3c6.3-5.2,14.8-8.5,24.2-8.6
	C102.6,82.5,101.5,82.4,100.5,82.4z M85.1,25.8c-31.2,6.9-54.7,32.5-56.7,61.3c-0.1,1.6,1.9,2.6,3.4,1.6c6.1-3.9,13.7-6.2,22-6.2
	c7,0,13.5,1.7,19.1,4.5C71.5,75,70.2,43.6,85.1,25.8z M120.6,25.8C137.4,44.4,134.3,76,133.4,86c0.7,0.5,1.4,1,2,1.6h0.4
	c6.4-5.4,16.8-3.9,26.6-3.9c7.9,0,7.1,1,13,4.6c1.5,0.9,4.9,0.4,4.7-1.2C177.7,55.7,156.2,29.7,120.6,25.8L120.6,25.8z"/>
<path class="st0" d="M78.6,88.1c0,0,2.8,0.1,2.9,0.1c5.8-5,13-8.2,21.8-8.2s16.7,3.1,22.5,8.1c0,0,5.5-40.9-11.2-60.6
	c-1.8-2.1-3.3-3.4-7.4-2.8c-2.3,0.3-7.2,1.1-10.1,2.8C70.9,43.5,78.6,88.1,78.6,88.1z"/>
<path class="st0" d="M183.2,86.8c-3-41-39.6-73.1-83.3-73.1h0h0c-44.1,0-80.6,32.4-83.3,73.8c-0.1,2,0.9,3.8,2.6,4.8
	c0.5,0.3,0.9,0.4,1.4,0.6l46.8,51.9c-1.4,1.4-2.1,3.3-2.1,5.3v3.2c0,2.7,1.4,5.2,3.6,6.6v23.2c0,3.7,3.1,6.7,6.9,6.7h47.6
	c3.8,0,6.9-3,6.9-6.7v-23.2c2.3-1.4,3.6-3.9,3.6-6.6v-3.2c0-2.1-0.8-3.9-2.1-5.3l46.9-52.4c0.7-0.1,1.4-0.3,2-0.7
	C182.3,90.7,183.3,88.8,183.2,86.8L183.2,86.8z M125.9,142.3h-10.1l13.8-47.7c6.6-6,15.4-9.3,24.7-9.3c6.6,0,12.9,1.6,18.4,4.7
	L125.9,142.3L125.9,142.3z M73.3,142.3L26.8,90.8c5.9-3.5,12.6-5.4,19.8-5.4c9.1,0,17.8,3.1,24.4,8.7L85,142.3
	C85,142.3,73.3,142.3,73.3,142.3z M75.9,87c-1.5-14.1-3.3-54.8,24.1-67c25.8,11,25.6,51.9,24.6,66.6l-0.1-0.1
	c-0.2-0.1-0.3-0.2-0.5-0.3c-0.3-0.2-0.6-0.4-1-0.6c-0.2-0.1-0.4-0.2-0.6-0.3c-0.3-0.2-0.6-0.3-0.9-0.5c-0.2-0.1-0.4-0.2-0.6-0.3
	c-0.3-0.2-0.6-0.3-0.9-0.5c-0.2-0.1-0.4-0.2-0.6-0.3c-0.3-0.2-0.6-0.3-0.9-0.4l-0.6-0.3c-0.3-0.2-0.7-0.3-1-0.4
	c-0.2-0.1-0.4-0.2-0.5-0.2c-0.4-0.2-0.8-0.3-1.2-0.5c-0.1,0-0.2-0.1-0.3-0.1c-0.5-0.2-1.1-0.4-1.6-0.5c-0.1,0-0.2-0.1-0.3-0.1
	c-0.4-0.1-0.9-0.2-1.3-0.4c-0.2-0.1-0.4-0.1-0.6-0.1c-0.4-0.1-0.7-0.2-1.1-0.2c-0.2-0.1-0.4-0.1-0.7-0.1c-0.6-0.1-1.2-0.2-1.7-0.3
	l-1-0.2l-0.7-0.1c-0.4,0-0.7-0.1-1.1-0.1l-0.7-0.1c-0.4,0-0.8-0.1-1.2-0.1l-0.6,0c-0.6,0-1.2,0-1.8,0s-1.2,0-1.8,0l-0.6,0
	c-0.4,0-0.8,0-1.2,0.1l-0.7,0.1c-0.3,0-0.7,0.1-1.1,0.1l-0.7,0.1c-0.3,0.1-0.7,0.1-1,0.2l-0.7,0.1l-1,0.2L91,80.4
	c-0.3,0.1-0.7,0.2-1,0.2c-0.2,0.1-0.5,0.1-0.7,0.2l-1,0.3c-0.2,0.1-0.4,0.1-0.7,0.2c-0.3,0.1-0.7,0.2-1,0.3
	c-0.2,0.1-0.4,0.1-0.6,0.2c-0.4,0.1-0.8,0.3-1.2,0.4c-0.1,0.1-0.2,0.1-0.4,0.1c-0.5,0.2-1.1,0.4-1.6,0.7c-0.1,0.1-0.2,0.1-0.3,0.2
	c-0.4,0.2-0.8,0.4-1.2,0.6l-0.5,0.3c-0.3,0.2-0.7,0.3-1,0.5c-0.2,0.1-0.4,0.2-0.6,0.3l-0.9,0.5l-0.6,0.4c-0.3,0.2-0.6,0.4-0.8,0.5
	c-0.2,0.1-0.4,0.3-0.6,0.4C76.1,86.8,76,86.9,75.9,87L75.9,87z M91.2,142.3L77,93.6c6.4-5.3,14.7-8.2,23.4-8.2
	c2.8,0,5.5,0.3,8.2,0.9c0.8,0.2,1.6,0.4,2.4,0.6c2,0.6,3.9,1.3,5.8,2.2c0.8,0.4,1.6,0.8,2.3,1.2c0.3,0.2,0.6,0.3,0.9,0.5
	c1.3,0.8,2.5,1.6,3.6,2.6l-14.1,48.9C109.5,142.3,91.2,142.3,91.2,142.3z M177.1,85.7c-6.8-4.2-14.6-6.4-22.8-6.4
	c-8.6,0-16.7,2.4-23.6,6.9c0.9-14.4,0.9-48.7-18.5-65.5C146.6,25.9,173.8,52.5,177.1,85.7L177.1,85.7z M87.6,20.7
	c-20.2,17.1-19.4,50.5-18,65.1c-6.8-4.1-14.8-6.4-23.1-6.4c-8.7,0-16.9,2.4-23.9,6.9C25.6,52.7,52.9,25.9,87.6,20.7z M127.9,153.3
	c0,0.8-0.6,1.5-1.3,1.7c-1.3,0.3-2.3,1.5-2.3,2.9v25.2c0,0.4-0.4,0.7-0.9,0.7H75.8c-0.5,0-0.9-0.3-0.9-0.7V158c0-1.4-0.9-2.6-2.3-3
	c-0.8-0.2-1.3-0.9-1.3-1.7v-3.2c0-1,0.8-1.8,1.8-1.8h53.1c1,0,1.8,0.8,1.8,1.8L127.9,153.3L127.9,153.3z"/>
</svg>
