<svg xmlns="http://www.w3.org/2000/svg" viewBox="0 0 923.94 131"><defs><style>.cls-1{fill:#0a9600;}</style></defs><title>Fichier 1</title><g id="Calque_2" data-name="Calque 2"><g id="Layer_1" data-name="Layer 1"><path class="cls-1" d="M347.36,51.4v57.67H326.29V51.4H305V33.05h63.63V51.4Z"/><path class="cls-1" d="M417.82,86.16H384.38c.65,6.29,4.34,9.11,9.66,9.11,5,0,9.12-1.08,14.77-4l7.49,12.49a44.23,44.23,0,0,1-23.24,6.52c-17.16,0-26.6-12.17-26.6-29.65,0-19.65,11.07-29.75,26.06-29.75,15.64,0,25.41,10.32,25.41,31.49A37.14,37.14,0,0,1,417.82,86.16ZM392,65.3c-4.46,0-7,3-7.61,8.69h16.29C399.68,68.23,397.73,65.3,392,65.3Z"/><path class="cls-1" d="M454.18,110.26c-16.72,0-26.71-10.64-26.71-29.86,0-17.49,8.91-29.54,27.15-29.54,10.75,0,16.94,5,21.93,13L463.09,74.1c-2.72-5-4.57-7.39-8.8-7.39-5,0-7.49,5-7.49,14s2.71,13.68,8,13.68c3.69,0,6.3-2.06,9.89-7.38l12.37,9.66C470.47,106.46,464.28,110.26,454.18,110.26Z"/><path class="cls-1" d="M520.84,109.06V76.7c0-7.38-2.49-9.33-6.51-9.33s-6.63,1.95-6.63,9.12v32.57H488.16V37.72L507.7,29.9v26a21.81,21.81,0,0,1,14.33-5c12.49,0,18.47,8.36,18.47,23.35v34.85Z"/><path d="M587.28,110.26c-22.58,0-34.64-16.73-34.64-39.2,0-24.43,14.34-39.2,34.75-39.2,18.68,0,26.07,8,31.27,22.37l-19.1,7.49c-2.73-7.06-5.33-11.51-12.28-11.51-8.79,0-12.59,8.79-12.59,20.85,0,11.62,3.69,20.85,12.81,20.85,6.62,0,9.45-3.59,13.57-10.75l17.81,9.44C613.78,100.59,605.31,110.26,587.28,110.26Z"/><path d="M667,73.55c-2.5-2.71-5.32-4.77-9.12-4.77-4.78,0-7.72,2.28-7.72,9.23v31.05H630.59v-57h19.54v4.13c3.37-3.26,7.17-5.32,12.17-5.32a16.73,16.73,0,0,1,9.23,2.39Z"/><path d="M713.43,109.06v-3.8a21.5,21.5,0,0,1-14.22,5c-12.49,0-18.46-8.36-18.46-23.35V52.05H700.4V84.42c0,7.37,2.5,9.33,6.52,9.33s6.51-2,6.51-9.12V52.05h19.66v57Z"/><path d="M779.88,109.06V76.7c0-7.38-2.5-9.33-6.52-9.33s-6.63,1.95-6.63,9.12v32.57H747.19v-57h19.54v3.8a21.84,21.84,0,0,1,14.34-5c12.49,0,18.46,8.36,18.46,23.35v34.85Z"/><path d="M837.62,110.26c-16.72,0-26.71-10.64-26.71-29.86,0-17.49,8.91-29.54,27.15-29.54,10.75,0,16.94,5,21.93,13L846.53,74.1c-2.72-5-4.57-7.39-8.8-7.39-5,0-7.49,5-7.49,14s2.71,13.68,8,13.68c3.69,0,6.3-2.06,9.89-7.38l12.37,9.66C853.91,106.46,847.72,110.26,837.62,110.26Z"/><path d="M904.28,109.06V76.7c0-7.38-2.49-9.33-6.51-9.33s-6.63,1.95-6.63,9.12v32.57H871.6V37.72l19.54-7.82v26a21.84,21.84,0,0,1,14.34-5c12.48,0,18.46,8.36,18.46,23.35v34.85Z"/><polygon class="cls-1" points="0 0 0 44 44 44 44 131 87 131 87 44 131 44 131 0 0 0"/><polygon class="cls-1" points="173 89 173 44 131 44 131 131 260 131 260 89 173 89"/><rect class="cls-1" x="173" width="87" height="44"/></g></g></svg>